<svg xmlns="http://www.w3.org/2000/svg" viewBox="0 0 512 512">
    <path d="M0 0v512h512V0H0zm482 482H30V30h452v452z"/>
    <path d="M411.119 226.24l-37.441 95.52-15.12-40.8 21.84-54.48h-25.92l-13.439 38.64-13.201-38.64h-25.92l22.08 54.48-15.359 40.8-37.439-95.52h-30.24L293.279 352h26.4l21.36-55.2 21.6 55.2h26.4l52.559-125.76zM148.322 181.6H86.401V352h61.921c59.428 0 84-44 84-85.44 0-51.81-34.072-84.96-84-84.96zm0 141.36h-28.801V210.64h28.801c30.178 0 50.639 21.61 50.639 55.92 0 32.19-20.211 56.4-50.639 56.4z"/>
</svg>
