<svg xmlns="http://www.w3.org/2000/svg" viewBox="0 0 512 512"><path d="M0 15.845v420.259h164.332v30.049h-30.036v30.001h243.407v-30.001h-30.036v-30.049H512V15.845H0zm317.665 450.308H194.334v-30.049h123.332v30.049zm164.334-60.05H30.001v-60.075h451.997v60.075zm0-90.076H30.001V45.847h451.997v270.18z"/><path d="M203.943 126.712l-21.214-21.214-75.439 75.439 75.439 75.438 21.214-21.214-54.225-54.224zM329.271 105.498l-21.214 21.214 54.225 54.225-54.225 54.224 21.214 21.214 75.438-75.438zM223.874 265.56L258.7 90.475l29.426 5.853L253.3 271.413z"/></svg>